<svg width="19" height="16" viewBox="0 0 19 16" fill="none" xmlns="http://www.w3.org/2000/svg">
<path d="M18.559 8.898L15.388 0.971C15.2736 0.684262 15.0757 0.438451 14.8201 0.265348C14.5645 0.0922455 14.2628 -0.000187492 13.954 2.85536e-07H11.52L11.9 4.065H14.6L9.50003 8.293L4.40003 4.065H7.10003L7.48003 2.85536e-07H5.04603C4.41403 2.85536e-07 3.84603 0.384 3.61203 0.971L0.441028 8.898C0.153133 9.61867 0.0680571 10.4044 0.195028 11.17L0.785028 14.709C0.844937 15.0697 1.03089 15.3974 1.30978 15.6338C1.58868 15.8702 1.94242 16 2.30803 16H16.691C17.446 16 18.09 15.454 18.214 14.709L18.804 11.17C18.9329 10.4045 18.8481 9.61839 18.559 8.898ZM16.459 13.245C16.4242 13.4561 16.3154 13.6479 16.1522 13.7862C15.989 13.9245 15.782 14.0003 15.568 14H3.43203C3.2181 14.0003 3.01105 13.9245 2.84784 13.7862C2.68463 13.6479 2.57589 13.4561 2.54103 13.245L2.17603 11.052C2.1542 10.9226 2.16088 10.7899 2.19563 10.6633C2.23037 10.5367 2.29232 10.4192 2.37717 10.319C2.46201 10.2189 2.5677 10.1384 2.68685 10.0833C2.80601 10.0282 2.93575 9.99977 3.06703 10H15.934C16.492 10 16.917 10.501 16.825 11.052L16.459 13.245Z" fill="white"/>
</svg>
